<svg version="1.2" xmlns="http://www.w3.org/2000/svg" viewBox="0 0 16 15" width="16" height="15">
	<title>SPEECH BUBBLE 2</title>
	<style>
		.s0 { fill: #95e1d3 } 
	</style>
	<path id="SPEECH BUBBLE 2" fill-rule="evenodd" class="s0" d="m8.4 12.4c-0.6 0-1.1-0.2-1.7-0.3-2.2 2.8-5.6 2.2-5.6 2.2 2.4-1.1 2.4-3 2-3.3-2-1.1-3.1-2.8-3.1-4.7 0-3.4 3.7-6.2 8.4-6.2 4.7 0 7.6 2.8 7.6 6.2 0 3.3-2.9 6.1-7.6 6.1zm-4.2-7.5c-0.8 0-1.5 0.6-1.5 1.5 0 0.8 0.7 1.5 1.5 1.5 0.9 0 1.5-0.7 1.5-1.5 0-0.9-0.6-1.5-1.5-1.5zm3.8 0c-0.8 0-1.5 0.6-1.5 1.5 0 0.8 0.7 1.5 1.5 1.5 0.8 0 1.5-0.7 1.5-1.5 0-0.9-0.7-1.5-1.5-1.5zm3.7 0c-0.8 0-1.5 0.6-1.5 1.5 0 0.8 0.7 1.5 1.5 1.5 0.9 0 1.5-0.7 1.5-1.5 0-0.9-0.6-1.5-1.5-1.5z"/>
</svg>