<svg version="1.2" xmlns="http://www.w3.org/2000/svg" viewBox="0 0 16 12" width="16" height="12">
	<title>youtube</title>
	<style>
		.s0 { fill: #95e1d3 } 
	</style>
	<path id="youtube" fill-rule="evenodd" class="s0" d="m16 2.8v6.6c0 1.3-1.1 2.1-2.5 2.1h-5.1-5.5c-1.4 0-2.9-0.8-2.9-2.1v-6.6c0-1.4 1.5-2.3 2.9-2.3h5.4 5.2c1.4 0 2.5 0.9 2.5 2.3zm-9 5.8l-0.1-5.1 3.5 2.6z"/>
	<path id="google plus" fill-rule="evenodd" class="s0" d="m-16.5 2.7v2.5h-1v-2.5h-2.5v-1h2.5v-2.4h1v2.4h2.5v1zm-6.9-2.5c0.9 0.5 1.4 1.3 1.4 2.4 0 0.9-0.5 1.5-1.2 2.1-0.7 0.5-0.9 0.7-0.9 1.2 0 0.3 0.8 1 1.2 1.3 1.1 0.7 1.4 1.4 1.4 2.6 0 1.5-1.4 3.2-4.1 3.2-2.4 0-4.4-1.1-4.4-2.6 0-1.5 1.9-3 4.2-3q0.4 0 0.7 0c-0.3-0.3-0.5-0.7-0.5-1.2 0-0.2 0.1-0.5 0.2-0.7q-0.2 0-0.4 0c-1.9 0-3.2-1.4-3.2-3.1 0-1.6 1.8-3.1 3.6-3.1 1.1 0 4.3 0 4.3 0l-1 0.9zm-1.9 7.6c-1.6 0-3.1 1-3.1 2.2 0 1.2 1.2 2 2.8 2 2.3 0 3.1-0.8 3.1-2q0-0.2-0.1-0.4c-0.1-0.7-0.8-1-1.7-1.6q-0.4-0.2-1-0.2zm1.8-5.2c-0.2-1.4-1.3-2.5-2.3-2.6-1.1 0-1.9 1.1-1.7 2.5 0.2 1.4 1.3 2.5 2.3 2.6 1.1 0 1.9-1.1 1.7-2.5z"/>
	<path id="tumblr" class="s0" d="m73 13.1q-1 0.5-1.8 0.7-0.9 0.2-1.8 0.2c-0.8 0-1.2-0.1-1.7-0.3q-0.9-0.2-1.5-0.7-0.6-0.6-0.8-1.1-0.2-0.6-0.2-1.7v-5.6h-2.2v-2.3c0.6-0.2 1.4-0.5 1.8-0.9q0.7-0.5 1.1-1.4 0.4-0.8 0.5-2h2.3v3.7h3.7v2.9h-3.7v4.1c0 0.9 0 1.4 0.1 1.7 0.1 0.3 0.3 0.5 0.6 0.7q0.5 0.3 1.2 0.3 1.2 0 2.4-0.8z"/>
	<path id="instagram" fill-rule="evenodd" class="s0" d="m-76 14h-12c-1.1 0-2-0.9-2-2v-12c0-1.1 0.9-2 2-2h12c1.1 0 2 0.9 2 2v12c0 1.1-0.9 2-2 2zm-6-11.1c-1.2 0-2.3 0.8-2.8 1.8q0 0 0 0-0.1 0.1-0.1 0.3 0 0 0 0-0.1 0.2-0.1 0.3 0 0 0 0.1-0.1 0.1-0.1 0.2 0 0 0 0.1 0 0.1 0 0.3c0 1.7 1.4 3.1 3.1 3.1 1.7 0 3.1-1.4 3.1-3.1q0-0.2 0-0.3 0-0.1 0-0.1 0-0.1-0.1-0.2 0-0.1 0-0.1 0-0.1-0.1-0.3 0 0 0 0 0-0.2-0.1-0.3 0 0 0 0c-0.5-1-1.6-1.8-2.8-1.8zm6.2-2.3c0-0.4-0.4-0.8-0.8-0.8h-1.6c-0.4 0-0.8 0.4-0.8 0.8v1.6c0 0.5 0.4 0.8 0.8 0.8h1.6c0.4 0 0.8-0.3 0.8-0.8zm0 4.1h-1.5q0.2 0.6 0.2 1.3c0 2.7-2.2 4.9-4.9 4.9-2.7 0-4.9-2.2-4.9-4.9q0-0.7 0.2-1.3h-1.5v6.7c0 0.5 0.4 0.8 0.8 0.8h10.8c0.4 0 0.8-0.3 0.8-0.8z"/>
	<path id="twitter" class="s0" d="m-109.1-0.5c1.3 0 1.9 0.5 2.6 1 0.5 0 1.2-0.3 1.7-0.5q0.2-0.1 0.4-0.2c-0.3 0.6-0.6 1.1-1.1 1.5-0.1 0.1-0.2 0.2-0.4 0.3q0 0 0 0c0.8 0 1.3-0.4 1.9-0.5q0 0 0 0c-0.3 0.4-0.7 0.9-1.1 1.2q-0.3 0.2-0.5 0.4c0 0.8 0 1.5-0.2 2.2-0.8 3.6-3 6.1-6.4 7.2-1.2 0.4-3.2 0.6-4.7 0.2q-1-0.2-1.9-0.6-0.5-0.2-0.9-0.5-0.2-0.1-0.3-0.2c0.3 0 0.7 0.1 1 0.1 0.4-0.1 0.7-0.1 1-0.1 0.7-0.2 1.4-0.4 2-0.8 0.2-0.1 0.6-0.3 0.8-0.5-0.3 0-0.7-0.1-0.9-0.2-1.1-0.4-1.7-1.1-2.1-2.1 0.3 0 1.2 0.1 1.5-0.1-0.5 0-0.8-0.2-1.1-0.4-0.9-0.5-1.6-1.4-1.6-2.8q0.2 0.1 0.4 0.1 0.3 0.2 0.7 0.2c0.1 0.1 0.3 0.1 0.4 0.1q0 0 0 0c-0.2-0.2-0.4-0.3-0.6-0.6-0.6-0.6-1.1-1.7-0.7-2.9q0.1-0.5 0.3-0.9 0 0 0 0c0.1 0.2 0.2 0.3 0.3 0.4q0.5 0.5 1 0.9c1.2 0.9 2.3 1.5 4 1.9 0.4 0.1 1 0.2 1.5 0.2-0.2-0.4-0.1-1.1 0-1.5 0.3-1.1 0.9-1.8 1.9-2.2q0.3-0.2 0.7-0.2 0.2-0.1 0.4-0.1z"/>
	<path id="facebook" class="s0" d="m-138-2c0 0.9 0 2.6 0 2.6 0 0-1.9-0.2-2.4 0.5-0.2 0.4-0.1 1.6-0.1 2.4 0.8 0 1.7 0 2.5 0-0.2 1-0.4 1.7-0.5 2.5-0.7 0-2 0-2 0v8c0 0-2.4 0-3.5 0 0-2.5 0-5.3 0-8-0.6 0-1 0-1.5 0 0-0.9 0-1.5 0-2.5 0.5 0 0.9 0 1.5 0 0-1.8 0.1-3.6 1-4.6 1-1 2-0.9 5-0.9z"/>
	<path id="pinterest" class="s0" d="m-53.2 8.4q-0.2 0.8-0.4 1.6c-0.1 0.6-0.2 1.1-0.4 1.6-0.3 0.8-0.7 1.5-1.3 2.2-0.3 0.4-0.3 0.2-0.4 0.2-0.1 0-0.1-0.1-0.1-0.2-0.1-0.7 0-1.4 0-2.1 0.1-0.8 0.2-1.5 0.4-2.2 0.3-1.3 0.6-2.5 0.9-3.8 0-0.1 0.1-0.3 0-0.3-0.1-0.4-0.2-0.7-0.2-1.1q-0.1-0.6 0.1-1.2c0.1-0.6 0.5-1.2 1.2-1.4 0.3-0.2 0.8-0.1 1 0q0.4 0.3 0.6 0.8c0.1 0.4 0 0.9-0.1 1.2-0.1 0.8-0.4 1.3-0.6 2.1-0.1 0.3-0.2 0.7-0.1 1.1q0.2 0.5 0.6 0.8c0.2 0.2 0.5 0.3 1 0.3 0.7 0 1.3-0.5 1.6-1 0.6-0.7 0.9-1.7 1.1-2.9 0-0.4 0-0.9 0-1.3q-0.1-1.2-0.7-1.9c-0.4-0.5-0.9-0.9-1.6-1.1-0.6-0.2-1.5-0.3-2.3-0.1-1.4 0.2-2.5 1-3.1 2.2-0.3 0.6-0.5 1.2-0.5 2.1 0 0.6 0.2 1.2 0.4 1.6 0.1 0.1 0.2 0.2 0.3 0.3 0.1 0.2 0 0.5-0.1 0.8 0 0.2 0 0.6-0.3 0.6-0.2 0-0.3-0.1-0.4-0.2-0.9-0.4-1.4-1.2-1.6-2.3-0.1-0.6-0.1-1.4 0-2 0.2-0.6 0.4-1.2 0.6-1.6 0.5-1 1.3-1.7 2.2-2.3 0.7-0.4 1.5-0.7 2.4-0.8q0.5-0.1 1-0.1c1.1 0 2 0.2 2.7 0.5q1.2 0.5 1.9 1.4c0.5 0.5 0.9 1.2 1.1 2 0.2 0.5 0.3 0.9 0.3 1.5 0 0.5-0.1 1-0.2 1.4-0.3 1.8-1.1 3.3-2.4 4.1q-0.5 0.3-1.1 0.5c-0.4 0.1-0.9 0.2-1.4 0.2q-0.7-0.1-1.2-0.4c-0.4-0.2-0.7-0.4-0.9-0.8z"/>
	<path id="dribbble" fill-rule="evenodd" class="s0" d="m46 6q0 0.8-0.2 1.6-0.1 0.8-0.4 1.5-0.3 0.7-0.8 1.4-0.4 0.6-0.9 1.2-0.6 0.5-1.2 0.9-0.7 0.5-1.4 0.8-0.7 0.3-1.5 0.5-0.8 0.1-1.6 0.1-0.8 0-1.6-0.1-0.8-0.2-1.5-0.5-0.7-0.3-1.4-0.8-0.6-0.4-1.2-0.9-0.5-0.6-0.9-1.2-0.5-0.7-0.8-1.4-0.3-0.7-0.4-1.5-0.2-0.8-0.2-1.6 0-0.8 0.2-1.6 0.1-0.8 0.4-1.5 0.3-0.7 0.8-1.4 0.4-0.6 0.9-1.1 0.6-0.6 1.2-1 0.7-0.5 1.4-0.8 0.7-0.3 1.5-0.4 0.8-0.2 1.6-0.2 0.8 0 1.6 0.2 0.8 0.1 1.5 0.4 0.7 0.3 1.4 0.8 0.6 0.4 1.2 1 0.5 0.5 0.9 1.1 0.5 0.7 0.8 1.4 0.3 0.7 0.4 1.5 0.2 0.8 0.2 1.6zm-1.2-0.1c-0.1 0-2.4-0.5-4.7-0.2q-0.1-0.2-0.2-0.3-0.2-0.5-0.4-1c2.7-1.1 3.8-2.7 3.8-2.7 0.9 1.1 1.5 2.6 1.5 4.2zm-2.3-5c0 0-1 1.5-3.6 2.5-1.1-2.2-2.4-3.9-2.5-4q0.8-0.2 1.6-0.2c1.7 0 3.3 0.6 4.5 1.7zm-6.1-1.5q0 0 0 0 0 0-0.1 0 0.1 0 0.1 0zm-1.3 0.4c0.1 0.2 1.3 1.9 2.5 4-3.3 0.8-6.1 0.8-6.3 0.8 0.5-2.1 1.9-3.9 3.8-4.8zm-3.9 6.2q0-0.1 0-0.2c0.1 0 3.5 0.1 7-1q0.3 0.6 0.5 1.2-0.1 0-0.2 0.1c-3.7 1.2-5.6 4.5-5.6 4.5q0 0 0 0c-1.1-1.2-1.7-2.8-1.7-4.6zm6.8 6.8c-1.7 0-3.2-0.5-4.4-1.5q0.2 0.1 0.2 0.1c0 0 1.3-2.9 5.4-4.3q0 0 0 0c1 2.5 1.4 4.6 1.5 5.2q-1.3 0.5-2.7 0.5zm3.8-1.1c-0.1-0.4-0.4-2.4-1.3-4.9 2.2-0.4 4.1 0.3 4.2 0.3-0.3 1.9-1.3 3.5-2.9 4.6z"/>
</svg>